<?xml version="1.0" encoding="UTF-8" standalone="no"?>
<!-- Created with Inkscape (http://www.inkscape.org/) -->

<svg
   width="157.1321mm"
   height="68.791664mm"
   viewBox="0 0 157.13209 68.791664"
   version="1.1"
   id="svg3536"
   inkscape:version="1.2.1 (9c6d41e410, 2022-07-14)"
   sodipodi:docname="logo_text_svg2.svg"
   xmlns:inkscape="http://www.inkscape.org/namespaces/inkscape"
   xmlns:sodipodi="http://sodipodi.sourceforge.net/DTD/sodipodi-0.dtd"
   xmlns="http://www.w3.org/2000/svg"
   xmlns:svg="http://www.w3.org/2000/svg">
  <sodipodi:namedview
     id="namedview3538"
     pagecolor="#505050"
     bordercolor="#eeeeee"
     borderopacity="1"
     inkscape:showpageshadow="0"
     inkscape:pageopacity="0"
     inkscape:pagecheckerboard="0"
     inkscape:deskcolor="#505050"
     inkscape:document-units="mm"
     showgrid="false"
     inkscape:zoom="1.0255231"
     inkscape:cx="91.172985"
     inkscape:cy="160.40595"
     inkscape:window-width="1920"
     inkscape:window-height="1001"
     inkscape:window-x="-9"
     inkscape:window-y="-9"
     inkscape:window-maximized="1"
     inkscape:current-layer="layer1" />
  <defs
     id="defs3533" />
  <g
     inkscape:label="Layer 1"
     inkscape:groupmode="layer"
     id="layer1"
     transform="translate(-16.387331,-82.36092)">
    <circle
       style="fill:#00e575;fill-opacity:1;stroke:none;stroke-width:0.649498;stroke-linecap:round;stroke-linejoin:round;paint-order:fill markers stroke;stop-color:#000000"
       id="circle3303"
       cx="139.1236"
       cy="116.75675"
       r="34.395832"
       inkscape:export-filename="..\GetIn\Logo2.png"
       inkscape:export-xdpi="96"
       inkscape:export-ydpi="96" />
    <g
       id="g3411"
       transform="translate(-4713.7641,608.3816)">
      <path
         style="color:#000000;fill:#ffffff;fill-opacity:1;stroke-width:1.70921;stroke-linecap:round;stroke-linejoin:round;paint-order:fill markers stroke"
         d="m 4871.5795,-472.70982 v -20.38347 c 0,-4.21592 -3.4821,-7.69809 -7.698,-7.69809 h -11.9182 c -4.2159,0 -7.6982,3.48217 -7.6982,7.69809 v 20.38347 m 5.6385,0 v -20.38347 c 0,-1.18858 0.871,-2.05976 2.0597,-2.05976 h 11.9182 c 1.1887,0 2.0563,0.87118 2.0563,2.05976 v 20.38347"
         id="path3305"
         sodipodi:nodetypes="cssssccssssc" />
      <path
         style="color:#000000;fill:#ffffff;fill-opacity:1;stroke-width:1.70921;stroke-linecap:round"
         d="m 4837.0167,-510.53988 c -1.5581,-3.5e-4 -2.8212,1.26276 -2.8209,2.82087 v 35.00919 h 5.6418 v -35.00919 c 3e-4,-1.55811 -1.2628,-2.82122 -2.8209,-2.82087 z"
         id="path3307"
         sodipodi:nodetypes="sccccs" />
      <rect
         style="fill:#ffffff;fill-opacity:1;stroke:none;stroke-width:4.90677;stroke-linecap:round;stroke-linejoin:round;stroke-dasharray:none;stroke-opacity:1;paint-order:fill markers stroke;stop-color:#000000"
         id="rect3310"
         width="4.7858863"
         height="3.0766113"
         x="4851.8901"
         y="-484.46701"
         ry="1.2728897" />
    </g>
    <path
       style="color:#000000;fill:#00e575;fill-opacity:1;stroke-width:1.63841;stroke-linecap:round;stroke-linejoin:round;paint-order:fill markers stroke"
       d="m 40.243781,119.86396 h 7.0751 v 7.22287 c -4.2674,4.95447 -11.1004,6.84925 -17.2961,4.65925 -6.3433,-2.24219 -10.5834,-8.21963 -10.5986,-14.94734 -0.017,-6.72787 4.1954,-12.7272 10.5281,-14.99857 6.3329,-2.27136 13.3969,-0.31446 17.6611,4.88965 0.5319,0.64865 1.4889,0.74323 2.1375,0.21121 0.6488,-0.53195 0.7434,-1.48904 0.2113,-2.13763 -3.8038,-4.6422 -9.4968,-7.11495 -15.2833,-6.92168 -1.9289,0.0643 -3.8675,0.42544 -5.7506,1.10082 -7.5321,2.70148 -12.5592,9.86069 -12.5409,17.86258 0.019,8.00206 5.0795,15.13822 12.6242,17.80499 7.5447,2.66676 15.9621,0.29602 21.005,-5.91686 0.2205,-0.27017 0.3414,-0.60802 0.3424,-0.9568 v -9.39252 c 7e-4,-0.83969 -0.6802,-1.52056 -1.52,-1.52 h -8.5952"
       id="path1552"
       sodipodi:nodetypes="cccscssscssssscccc" />
    <path
       id="path1554"
       style="fill:none;stroke:#00e575;stroke-width:3.08471;stroke-linecap:square;stroke-linejoin:round;stroke-dasharray:none;stroke-opacity:1;paint-order:fill markers stroke;stop-color:#000000"
       d="m 79.286781,128.22725 c -2.6118,4.22192 -7.5741,6.59538 -12.6676,5.7575 -6.1358,-1.00939 -10.5988,-6.37285 -10.476,-12.59015 0.1232,-6.2172 4.7942,-11.40013 10.9653,-12.16629 6.1711,-0.76619 11.9679,3.11714 13.6075,9.11562 h -22.5866"
       sodipodi:nodetypes="cssscc" />
    <path
       style="color:#000000;fill:#00e575;fill-opacity:1;stroke-width:1.63841;stroke-linecap:round;stroke-linejoin:round;-inkscape-stroke:none;paint-order:fill markers stroke"
       d="m 96.765781,132.86288 c -4.6157,-1.4745 -7.7408,-5.75301 -7.7408,-10.5985 V 99.31056 c 3e-4,-0.81364 -0.6584,-1.47378 -1.472,-1.47522 -0.8149,-3.7e-4 -1.4755,0.66031 -1.4752,1.47522 v 22.95382 c 0,6.11665 3.9622,11.54682 9.789,13.40814"
       id="path1556"
       sodipodi:nodetypes="cscscsc" />
    <path
       style="fill:none;stroke:#00e575;stroke-width:3.01091;stroke-linecap:round;stroke-linejoin:miter;stroke-dasharray:none;stroke-opacity:1"
       d="m 87.838481,109.09566 h 7.4206"
       id="path1558"
       sodipodi:nodetypes="cc" />
  </g>
</svg>
